<svg width="92" height="37" viewBox="0 0 92 37" fill="none" xmlns="http://www.w3.org/2000/svg">
<path d="M30.3109 6.44555L10.9979 17.6595H30.3109V23.529H0.504883V17.1999L19.7852 6.01855H0.832716V0.116386H30.3109V6.44438V6.44555Z" fill="white"/>
<path d="M61.034 11.822C62.6732 13.2325 63.3954 15.1015 63.3954 16.8713C63.3954 21.7573 59.8207 23.5272 55.6895 23.5272H33.5894V0.1145H55.6895C59.8207 0.1145 63.3954 1.8855 63.3954 6.77033C63.3954 8.574 62.6744 10.443 61.034 11.8197V11.822ZM55.0339 9.6905C56.3779 9.6905 57.198 9.0675 57.198 7.78883C57.198 6.64083 56.3452 5.91983 55.1645 5.91983H39.7855V9.6905H55.0327H55.0339ZM39.7867 13.9862V17.7242H55.1657C56.3464 17.7242 57.1992 17.0358 57.1992 15.8552C57.1992 14.5765 56.379 13.9862 55.035 13.9862H39.7879H39.7867Z" fill="white"/>
<path d="M91.4967 17.7242V23.5283H66.019V0.115667H72.249V17.7242H91.4967Z" fill="white"/>
<path d="M22.8439 20.7237C21.8768 20.8252 20.9866 20.9617 20.1723 21.1308C20.0533 21.1647 19.9389 21.195 19.8281 21.2195C19.7173 21.2452 19.5948 21.2743 19.4594 21.3082C19.4081 21.3257 19.3323 21.3338 19.2308 21.3338C19.0943 21.3338 18.9928 21.3175 18.9251 21.2825C18.8399 21.2487 18.7851 21.1892 18.7594 21.104C18.7338 21.0188 18.7466 20.9348 18.7979 20.8497C18.9671 20.5953 19.2389 20.3795 19.6123 20.201C19.9856 20.0225 20.3963 19.879 20.8466 19.7682C21.2958 19.6585 21.7368 19.5733 22.1696 19.5138C22.6024 19.4543 22.9711 19.417 23.2768 19.3995C23.4973 19.3995 23.6746 19.3528 23.8111 19.2595C23.9464 19.1662 24.0818 19.0262 24.2183 18.8395C24.9813 17.737 25.7408 16.638 26.4956 15.5437C27.2504 14.4493 28.0099 13.3515 28.7729 12.2478C28.9083 12.0437 29.0436 11.8453 29.1801 11.6493C29.3154 11.4545 29.4508 11.2632 29.5873 11.0765C29.9769 10.5678 30.4611 10.2365 31.0374 10.0837C31.1389 10.0498 31.2743 10.0323 31.4446 10.0323C31.7841 10.0323 32.0466 10.1385 32.2333 10.3508C32.4199 10.5632 32.4958 10.8467 32.4619 11.2037C32.4281 11.3903 32.3943 11.5852 32.3604 11.7893C32.3266 11.9923 32.2753 12.1883 32.2076 12.375C31.9696 13.138 31.7328 13.8893 31.4948 14.6267C31.2568 15.3652 31.0199 16.1072 30.7819 16.8538C30.6804 17.1933 30.5824 17.52 30.4891 17.8338C30.3958 18.1477 30.2978 18.4743 30.1963 18.8138C30.1449 18.983 30.2044 19.0938 30.3748 19.1452C30.4938 19.1627 30.6081 19.179 30.7178 19.1953C30.8274 19.2128 30.9429 19.2385 31.0608 19.2723C31.2988 19.3062 31.5228 19.417 31.7351 19.6037C31.9474 19.7903 32.0874 20.0027 32.1551 20.2395C32.1889 20.4262 32.1551 20.579 32.0536 20.698C31.9521 20.817 31.8156 20.8765 31.6464 20.8765H31.5449C31.3583 20.8252 31.1716 20.7493 30.9849 20.6478C30.8321 20.5802 30.6711 20.5207 30.5008 20.4693C30.3304 20.418 30.1531 20.3935 29.9664 20.3935C29.7798 20.4273 29.6608 20.5207 29.6106 20.6735C29.5091 21.0468 29.3983 21.412 29.2793 21.7678C29.1603 22.1237 29.0588 22.4888 28.9736 22.8622C28.8208 23.3883 28.6808 23.9145 28.5536 24.4395C28.4264 24.9657 28.2946 25.5 28.1593 26.0425C28.0741 26.3482 28.0111 26.6538 27.9679 26.9583C27.9248 27.264 27.9213 27.5603 27.9551 27.8485C27.9714 28.0352 28.0274 28.1495 28.1208 28.1927C28.2141 28.2347 28.3459 28.2568 28.5151 28.2568C28.8546 28.2055 29.2874 27.964 29.8136 27.5312C30.3398 27.0983 30.8694 26.6107 31.4038 26.0682C31.9381 25.5257 32.4339 24.9913 32.8924 24.4652C33.3509 23.939 33.6811 23.5493 33.8853 23.295C33.9868 23.1422 34.0976 23.0068 34.2166 22.8878C34.2843 22.7863 34.3601 22.735 34.4453 22.735C34.4966 22.735 34.5304 22.7432 34.5468 22.7607C34.6144 22.7945 34.6529 22.8412 34.6611 22.9007C34.6693 22.9602 34.6646 23.0243 34.6483 23.092C34.5806 23.3977 34.4021 23.7792 34.1139 24.2377C33.8258 24.6962 33.4734 25.1838 33.0581 25.7007C32.6416 26.2187 32.1796 26.7355 31.6709 27.2535C31.1623 27.7703 30.6489 28.237 30.1309 28.6535C29.6129 29.0688 29.1171 29.4037 28.6423 29.6592C28.1674 29.9135 27.7428 30.0407 27.3694 30.0407C26.9961 30.0407 26.6438 29.9298 26.3638 29.7093C26.0838 29.4888 25.8843 29.175 25.7653 28.7678C25.7314 28.5812 25.7058 28.3898 25.6894 28.195C25.6719 28.0002 25.6813 27.8088 25.7151 27.6222C25.8003 27.2827 25.8714 26.9443 25.9309 26.6048C25.9904 26.2653 26.0616 25.927 26.1468 25.5875C26.3498 24.8245 26.5621 24.0697 26.7826 23.323C27.0031 22.5763 27.2154 21.8215 27.4184 21.0585C27.5036 20.7703 27.5328 20.5837 27.5071 20.4985C27.4814 20.4133 27.3496 20.3713 27.1128 20.3713H26.9098C26.5703 20.3888 26.2389 20.4052 25.9169 20.4215C25.5949 20.439 25.2636 20.4553 24.9241 20.4728C24.6359 20.4903 24.3898 20.6432 24.1856 20.9313C23.3713 22.119 22.5604 23.2892 21.7554 24.443C20.9493 25.5968 20.1221 26.7507 19.2739 27.9045C19.0359 28.244 18.7011 28.5578 18.2683 28.846C17.8354 29.1342 17.3991 29.2788 16.9581 29.2788C16.8391 29.2788 16.7458 29.2707 16.6781 29.2532C16.4401 29.2193 16.3048 29.126 16.2709 28.9732C16.2371 28.8203 16.3141 28.6512 16.4996 28.4645L16.6268 28.3373C17.0678 28.0317 17.4668 27.6793 17.8226 27.2815C18.1784 26.8837 18.5261 26.4718 18.8656 26.0472C19.5784 25.1815 20.2656 24.3088 20.9271 23.4257C21.5886 22.5437 22.2244 21.6442 22.8358 20.7283L22.8439 20.7237ZM29.6643 13.2162C29.3761 13.5043 28.8756 14.1448 28.1628 15.1377C27.4499 16.1305 26.6274 17.3392 25.6941 18.7637C25.6603 18.8313 25.6218 18.8955 25.5798 18.955C25.5378 19.0145 25.5413 19.0868 25.5926 19.1708C25.9321 19.1545 26.2751 19.1417 26.6228 19.1323C26.9704 19.1242 27.3228 19.1113 27.6786 19.0938C27.8991 19.0938 28.0438 18.9923 28.1114 18.7882C28.1453 18.6353 28.1873 18.479 28.2386 18.3168C28.2899 18.1558 28.3319 17.9983 28.3658 17.8455L29.5873 13.7995C29.6211 13.7143 29.6514 13.621 29.6759 13.5195C29.7016 13.418 29.6969 13.3165 29.6631 13.2138L29.6643 13.2162Z" fill="#E3FE73"/>
<path d="M36.9935 24.5923C36.9935 24.4733 36.934 24.4138 36.815 24.4138C36.7975 24.4313 36.7812 24.4395 36.7637 24.4395C36.255 24.8642 35.7288 25.2457 35.1863 25.5852C35.0498 25.6867 34.8725 25.7928 34.652 25.9037C34.4315 26.0145 34.2367 26.0693 34.0663 26.0693C33.9135 26.0693 33.735 26.018 33.532 25.9165C33.0397 25.6458 32.8192 25.2293 32.8705 24.6693C32.9043 24.3135 33.0362 23.953 33.2648 23.5878C33.4935 23.2227 33.77 22.8797 34.092 22.5577C34.414 22.2357 34.7582 21.9382 35.1222 21.6675C35.4873 21.3968 35.8047 21.1752 36.0765 21.006C36.2632 20.9045 36.4662 20.8018 36.6878 20.7003C36.9083 20.5988 37.1288 20.5475 37.3493 20.5475C37.4847 20.5475 37.6165 20.5685 37.7437 20.6117C37.8708 20.6537 38.0027 20.7097 38.138 20.7773C38.2733 20.8788 38.376 20.964 38.4437 21.0317C38.579 21.1507 38.7027 21.265 38.8123 21.3747C38.922 21.4855 39.0375 21.5998 39.1565 21.7188C39.3432 21.9055 39.419 22.126 39.3852 22.3803C39.3677 22.5168 39.3513 22.6393 39.3338 22.749C39.3163 22.8598 39.3082 22.9485 39.3082 23.0162C39.2907 23.1013 39.2778 23.1527 39.2697 23.169C39.2615 23.1865 39.2568 23.2028 39.2568 23.2203C39.2568 23.3393 39.2265 23.4583 39.1682 23.5762C39.1087 23.6952 39.1215 23.8048 39.2067 23.9075C39.342 23.925 39.4528 23.8947 39.538 23.8188C39.6232 23.743 39.7165 23.6707 39.818 23.603C40.056 23.484 40.28 23.3743 40.4923 23.2717C40.7047 23.1702 40.9287 23.0768 41.1667 22.9917C41.6415 22.8225 42.0743 22.7373 42.464 22.7373C42.6168 22.7373 42.7347 22.7455 42.8198 22.763C43.0065 22.7805 43.1593 22.8307 43.2783 22.9158C43.3122 22.9333 43.346 23.001 43.3798 23.12C43.3962 23.1538 43.3833 23.2005 43.3413 23.26C43.2993 23.3195 43.2608 23.3662 43.227 23.4C43.1593 23.4338 43.0998 23.4595 43.0485 23.4758C42.9972 23.4933 42.947 23.5097 42.8957 23.5272C42.8105 23.561 42.7253 23.582 42.6413 23.5913C42.5562 23.5995 42.471 23.6123 42.387 23.6298C41.7932 23.6975 41.2332 23.8585 40.707 24.1128C40.1808 24.3672 39.6722 24.6903 39.1798 25.08C38.9593 25.2165 38.8065 25.4195 38.7213 25.6913C38.6362 25.9632 38.5685 26.2175 38.5183 26.4543C38.348 27.0995 38.1625 27.7692 37.9583 28.4645C37.7553 29.1598 37.5255 29.8423 37.2712 30.5132C37.0168 31.1828 36.724 31.8362 36.3927 32.4732C36.0613 33.109 35.6845 33.69 35.2598 34.2162C35.0393 34.4542 34.7978 34.6875 34.5342 34.9162C34.2705 35.1448 33.9613 35.2592 33.6055 35.2592C33.2835 35.2592 33.0035 35.1577 32.7655 34.9535C32.5275 34.7505 32.4097 34.4787 32.4097 34.1392C32.4097 33.5792 32.5497 32.9597 32.8297 32.2818C33.1097 31.6028 33.4527 30.9203 33.8598 30.2332C34.267 29.546 34.6952 28.8927 35.1455 28.2732C35.5947 27.6537 35.9983 27.124 36.3542 26.683C36.5408 26.4625 36.6937 26.1277 36.8127 25.6773C36.9317 25.2282 36.9912 24.8677 36.9912 24.5958L36.9935 24.5923ZM35.4407 30.344L35.8222 29.1983V29.0455L35.695 29.147C35.3217 29.7583 34.9693 30.3848 34.6392 31.03C34.3078 31.674 34.05 32.353 33.8633 33.0658V33.1417C33.8808 33.1755 33.8972 33.1965 33.9147 33.2058C33.931 33.214 33.9485 33.2268 33.966 33.2443C34.0173 33.2443 34.0418 33.2362 34.0418 33.2187C34.1772 33.0822 34.288 32.9433 34.3732 32.7987C34.4583 32.654 34.5423 32.5058 34.6275 32.353L35.4418 30.3428L35.4407 30.344ZM35.3392 23.9565H35.5177C36.213 23.5668 36.8407 23.0407 37.4007 22.378V22.3022C37.3668 22.2345 37.3248 22.2088 37.2735 22.2263C36.8827 22.3628 36.5315 22.553 36.2177 22.7992C35.9038 23.0453 35.6028 23.3382 35.3147 23.6777C35.2633 23.729 35.2552 23.7792 35.289 23.8305C35.289 23.848 35.3053 23.89 35.3403 23.9577L35.3392 23.9565Z" fill="#E3FE73"/>
<path d="M42.2093 28.3082C42.0226 27.9523 41.9001 27.579 41.8406 27.1882C41.7811 26.7985 41.7683 26.4077 41.8021 26.018C41.8698 25.3903 42.0063 24.737 42.2093 24.058C42.4123 23.379 42.6969 22.7513 43.0621 22.175C43.4273 21.5987 43.8718 21.1017 44.3979 20.6863C44.9241 20.271 45.5343 20.0038 46.2308 19.8848C46.3159 19.8685 46.4338 19.8592 46.5866 19.8592C47.1291 19.8592 47.5701 20.0715 47.9096 20.495C48.2491 20.9197 48.3926 21.4108 48.3424 21.9708C48.3424 22.056 48.3249 22.1493 48.2911 22.2508C48.0018 22.98 47.6074 23.596 47.1081 24.0953C46.6076 24.5958 45.9753 24.9738 45.2123 25.2282C44.9241 25.3472 44.6009 25.4067 44.2451 25.4067C44.1599 25.4067 44.0748 25.402 43.9908 25.3938C43.9056 25.3857 43.8204 25.3728 43.7364 25.3553C43.6349 25.339 43.5451 25.3635 43.4693 25.4312C43.3934 25.4988 43.3374 25.5758 43.3036 25.6598C43.3036 25.7112 43.2954 25.7578 43.2779 25.7998C43.2604 25.8418 43.2523 25.8885 43.2523 25.9398C43.2009 26.585 43.2604 27.2033 43.4308 27.7972C43.5323 28.153 43.7271 28.3315 44.0164 28.3315C44.0678 28.3315 44.1599 28.314 44.2964 28.2802C44.8564 28.111 45.4538 27.852 46.0908 27.5043C46.7266 27.1567 47.3414 26.7623 47.9353 26.3213C48.5291 25.8803 49.0926 25.4055 49.6281 24.8968C50.1624 24.3882 50.6081 23.8877 50.9639 23.3953C51.0316 23.2938 51.1074 23.1958 51.1926 23.1025C51.2778 23.0092 51.3618 22.9112 51.4469 22.8097C51.4808 22.7583 51.5321 22.7338 51.5998 22.7338C51.6336 22.7338 51.6674 22.7513 51.7013 22.7852C51.7176 22.819 51.7351 22.8575 51.7526 22.8995C51.7689 22.9415 51.7783 22.9882 51.7783 23.0395C51.7783 23.1247 51.7526 23.2098 51.7024 23.2938C51.6009 23.582 51.4306 23.9005 51.1938 24.2482C50.9558 24.5958 50.6851 24.9353 50.3794 25.2655C50.0738 25.5968 49.7681 25.9107 49.4636 26.207C49.1579 26.5045 48.8954 26.7542 48.6749 26.9572C48.4544 27.1613 48.1663 27.4157 47.8093 27.7202C47.4534 28.0258 47.0708 28.3187 46.6636 28.5987C46.2564 28.8787 45.8493 29.1202 45.4421 29.3243C45.0349 29.5273 44.6698 29.63 44.3478 29.63C43.9068 29.63 43.4868 29.5063 43.0878 29.2613C42.6899 29.0152 42.3971 28.6967 42.2093 28.307V28.3082ZM46.8153 21.9195C46.7978 21.8857 46.7896 21.8437 46.7896 21.7923C46.7896 21.741 46.7721 21.6908 46.7383 21.6395C46.7044 21.5718 46.6274 21.538 46.5096 21.538C46.4419 21.538 46.3731 21.5555 46.3054 21.5893L46.2039 21.6407C45.2029 22.1668 44.4388 22.9637 43.9138 24.0323C43.8799 24.0837 43.8881 24.1385 43.9394 24.198C43.9908 24.2575 44.0491 24.2867 44.1179 24.2867H44.2964C44.9066 24.1513 45.4071 23.9005 45.7979 23.5353C46.1876 23.1702 46.5108 22.7175 46.7651 22.1738L46.8164 21.9195H46.8153Z" fill="#E3FE73"/>
<path d="M50.5567 26.0168C50.6419 25.0835 50.7597 24.1502 50.9126 23.218C51.0654 22.2847 51.2859 21.3688 51.5741 20.4693C51.7269 20.0622 51.9392 19.7402 52.2099 19.5022C52.3452 19.417 52.4724 19.375 52.5914 19.375C52.6591 19.375 52.7442 19.3925 52.8457 19.4263C53.0662 19.5453 53.1934 19.7483 53.2272 20.0377C53.2272 20.1228 53.2191 20.2033 53.2016 20.2792C53.1841 20.355 53.1677 20.4367 53.1502 20.5207C53.0651 20.8088 52.9892 21.1017 52.9216 21.3992C52.8539 21.6967 52.7851 21.9977 52.7186 22.3022C52.6334 22.574 52.5704 22.833 52.5272 23.078C52.4852 23.3242 52.4631 23.5832 52.4631 23.8538L52.4887 23.8795L52.5144 23.9052H52.6672C52.7524 23.7862 52.8329 23.6765 52.9087 23.5738C52.9845 23.4712 53.0651 23.3615 53.1502 23.2425C53.6927 22.3267 54.2527 21.4353 54.8302 20.5708C55.0332 20.2827 55.2456 20.0202 55.4661 19.7822C55.5337 19.697 55.6527 19.5873 55.8219 19.4508C56.0599 19.2817 56.3049 19.1965 56.5604 19.1965C56.8661 19.1965 57.1286 19.3108 57.3491 19.5407C57.5696 19.7693 57.6967 20.0283 57.7306 20.3165C57.7819 20.5883 57.7644 20.8847 57.6792 21.2067C57.4249 22.14 57.1741 23.0733 56.9291 24.0055C56.6829 24.9388 56.4752 25.8885 56.3061 26.8557C56.2722 26.9922 56.2547 27.131 56.2547 27.2757V27.6957C56.2547 27.8147 56.2967 27.908 56.3819 27.9757C56.4496 28.0095 56.4916 28.027 56.5091 28.027C56.5767 28.027 56.6619 27.9932 56.7634 27.9255C57.0854 27.6712 57.3491 27.4168 57.5521 27.1625C57.7049 26.9758 57.8997 26.7133 58.1377 26.3738C58.3757 26.0343 58.6207 25.6785 58.8762 25.3052C59.1306 24.9318 59.3721 24.5667 59.6019 24.2108C59.8306 23.855 60.0044 23.575 60.1234 23.3708C60.3439 22.9812 60.5131 22.7852 60.6321 22.7852C60.7511 22.7852 60.7977 22.9508 60.7721 23.281C60.7464 23.6123 60.6402 23.9297 60.4536 24.2353C60.3007 24.4897 60.1012 24.8245 59.8551 25.241C59.6089 25.6563 59.3464 26.081 59.0664 26.5138C58.7864 26.9467 58.5064 27.3585 58.2264 27.7482C57.9464 28.1378 57.7049 28.4435 57.5007 28.664C57.3141 28.8682 57.1017 29.0583 56.8649 29.2368C56.6269 29.4153 56.3644 29.504 56.0762 29.504C55.7367 29.504 55.4229 29.3768 55.1347 29.1225C54.8629 28.8682 54.6634 28.5835 54.5362 28.2697C54.4091 27.9558 54.3787 27.6117 54.4476 27.2383C54.4989 26.9502 54.5537 26.6527 54.6132 26.3482C54.6727 26.0425 54.7439 25.7462 54.8291 25.458C54.9142 25.0683 55.0111 24.6903 55.1219 24.3252C55.2316 23.96 55.3296 23.5832 55.4147 23.1923C55.5676 22.6498 55.6947 22.1155 55.7962 21.5893C55.8126 21.5217 55.8219 21.454 55.8219 21.3863V21.1822C55.8219 21.1483 55.8091 21.1273 55.7834 21.118C55.7577 21.1098 55.7367 21.097 55.7192 21.0795C55.6679 21.0282 55.6434 21.0282 55.6434 21.0795C55.5757 21.1472 55.5116 21.2067 55.4521 21.258C55.3926 21.3093 55.3377 21.3688 55.2864 21.4365C55.0321 21.7923 54.7684 22.1913 54.4977 22.6323C54.2259 23.0733 53.9669 23.5225 53.7219 23.981C53.4757 24.4395 53.2471 24.9015 53.0347 25.3682C52.8224 25.8348 52.6486 26.2805 52.5132 26.704C52.4619 26.8732 52.4024 27.0015 52.3347 27.0855C52.1819 27.3737 51.9532 27.5183 51.6475 27.5183C51.3594 27.5183 51.1167 27.3877 50.9219 27.124C50.7271 26.8615 50.6034 26.6025 50.5532 26.3482V26.0168H50.5567Z" fill="#E3FE73"/>
<path d="M59.1075 25.4067C59.1075 25.0508 59.2218 24.6052 59.4505 24.0708C59.6792 23.5365 59.9767 23.015 60.3407 22.5052C60.7058 21.9965 61.1037 21.5602 61.5365 21.195C61.9693 20.8298 62.3893 20.6478 62.7965 20.6478C63.136 20.6478 63.437 20.754 63.6995 20.9663C63.962 21.1787 64.1102 21.4622 64.1452 21.8192C64.179 22.3453 63.9842 22.7443 63.5595 23.015C63.542 23.0325 63.5292 23.0407 63.521 23.0407C63.5128 23.0407 63.5 23.0488 63.4825 23.0663C63.4487 23.0838 63.3973 23.092 63.3297 23.092C63.1267 23.092 62.9983 22.9987 62.9482 22.812C62.9307 22.7268 62.9178 22.6335 62.9097 22.532C62.9015 22.4305 62.8887 22.3372 62.8712 22.252C62.8712 22.1505 62.8035 22.0992 62.6682 22.0992C62.6507 22.1167 62.6343 22.1248 62.6168 22.1248C62.4465 22.2263 62.3368 22.3115 62.2855 22.3792C61.8947 22.8202 61.5692 23.2915 61.3055 23.792C61.0418 24.2925 60.8435 24.8397 60.707 25.4335C60.6732 25.6202 60.6813 25.7812 60.7327 25.9177C60.8342 26.0705 60.9707 26.1463 61.1398 26.1463C61.4618 26.0448 61.8013 25.8663 62.1572 25.612C62.513 25.3577 62.8653 25.0823 63.213 24.7848C63.5607 24.4885 63.8908 24.1828 64.2058 23.869C64.5197 23.5552 64.7868 23.2798 65.0073 23.0418C65.0587 22.9905 65.1135 22.9357 65.173 22.8762C65.2325 22.8167 65.3037 22.7793 65.3888 22.7618C65.474 22.7618 65.516 22.7875 65.516 22.8388C65.5673 23.1445 65.4903 23.4245 65.2873 23.6788C65.117 23.9168 64.8463 24.2388 64.473 24.646C64.0997 25.0532 63.6925 25.4475 63.2515 25.829C62.8105 26.2105 62.3648 26.5418 61.9157 26.8218C61.4665 27.1018 61.0885 27.2418 60.7828 27.2418C60.2905 27.2418 59.8927 27.0552 59.587 26.6818C59.2813 26.3085 59.1203 25.885 59.104 25.409L59.1075 25.4067Z" fill="#E3FE73"/>
<path d="M64.222 25.6353C64.3748 24.618 64.5697 23.6975 64.8077 22.8738C65.0457 22.0513 65.3163 21.1565 65.622 20.1893C65.6558 20.1042 65.6943 20.0155 65.7363 19.9222C65.7783 19.8288 65.825 19.7402 65.8763 19.655C65.9778 19.4858 66.0805 19.3587 66.182 19.2735C66.3348 19.172 66.4958 19.1207 66.665 19.1207C66.8003 19.1207 66.9531 19.1638 67.1235 19.2478C67.4793 19.452 67.6158 19.7402 67.5306 20.1135C67.4968 20.215 67.463 20.3177 67.4291 20.4192C67.3953 20.5207 67.3615 20.6233 67.3276 20.7248C67.2086 21.0468 67.0768 21.433 66.9333 21.8833C66.7886 22.3325 66.6487 22.791 66.5133 23.2577C66.3768 23.7243 66.2625 24.1863 66.1703 24.6448C66.077 25.1033 66.0303 25.5105 66.0303 25.8663C66.0303 26.053 66.056 26.1802 66.1062 26.2478C66.1575 26.3155 66.2671 26.3493 66.4375 26.3493C66.7431 26.1965 67.078 25.9002 67.4431 25.4592C67.8083 25.0182 68.1642 24.5223 68.5118 23.9705C68.8595 23.4198 69.178 22.8633 69.4662 22.3033C69.7543 21.7433 69.9667 21.2767 70.102 20.9033C70.1358 20.768 70.2163 20.6618 70.3435 20.5848C70.4706 20.509 70.6025 20.4705 70.7378 20.4705C70.9758 20.4705 71.1916 20.5557 71.3865 20.7248C71.5813 20.894 71.6875 21.0982 71.705 21.3362C71.705 21.4727 71.7003 21.608 71.6921 21.7433C71.684 21.8798 71.6712 22.0152 71.6537 22.1505L71.3223 24.2878C71.2885 24.3555 71.3048 24.4068 71.3736 24.4407C71.39 24.4582 71.4332 24.4663 71.5008 24.4663C71.586 24.4325 71.7131 24.3648 71.8823 24.2622C72.188 24.1093 72.4937 23.953 72.7982 23.792C73.1038 23.631 73.4177 23.4828 73.7397 23.3463C73.9765 23.2448 74.2098 23.155 74.4397 23.0792C74.6683 23.0033 74.9017 22.9228 75.1397 22.8377C75.2073 22.8038 75.3006 22.7863 75.4196 22.7863C75.6063 22.7863 75.7078 22.8458 75.7253 22.9648C75.7416 23.1013 75.7125 23.2063 75.6367 23.2833C75.5608 23.3592 75.4792 23.4233 75.3952 23.4747C75.2762 23.5423 75.1618 23.6018 75.0522 23.6532C74.9413 23.7045 74.827 23.7547 74.708 23.806C74.2495 24.0102 73.8003 24.2307 73.3593 24.4675C72.9183 24.7055 72.5018 24.968 72.1122 25.2562C71.9757 25.3413 71.8403 25.4382 71.705 25.549C71.5685 25.6598 71.4332 25.7567 71.2978 25.8418C71.0773 26.0122 70.942 26.2408 70.8906 26.529L70.5593 28.1577C70.3388 29.1412 70.1101 30.113 69.8721 31.072C69.6341 32.0298 69.346 32.9842 69.0065 33.935C68.7685 34.6642 68.4803 35.3257 68.1408 35.9195C68.0043 36.1738 67.7978 36.399 67.5178 36.5938C67.2378 36.7887 66.945 36.8867 66.6393 36.8867C66.35 36.8867 66.0956 36.798 65.8763 36.6195C65.6558 36.441 65.5368 36.2077 65.5205 35.9195C65.4692 35.6138 65.4692 35.3082 65.5205 35.0037C65.7585 33.6118 66.1096 32.2212 66.5763 30.8305C67.043 29.4387 67.7348 28.1833 68.6507 27.0645C68.9213 26.7425 69.0835 26.3692 69.1336 25.9445C69.185 25.6388 69.2351 25.3425 69.2865 25.0543C69.3378 24.7662 69.3541 24.4687 69.3378 24.1642L66.9205 27.3958C66.7 27.684 66.42 27.8963 66.0805 28.0317C65.944 28.0993 65.7911 28.1332 65.622 28.1332C65.4015 28.1332 65.2066 28.0818 65.0363 27.9803C64.866 27.8788 64.74 27.7598 64.6548 27.6245C64.621 27.5568 64.5825 27.4892 64.5405 27.4215C64.4985 27.3538 64.46 27.278 64.4261 27.1928C64.2395 26.7005 64.1718 26.1837 64.2232 25.64L64.222 25.6353ZM66.7677 34.593C66.7677 34.6268 66.7805 34.6478 66.8062 34.6572C66.8318 34.6653 66.8528 34.6782 66.8703 34.6957C66.8867 34.6957 66.8995 34.691 66.9088 34.6828C66.917 34.6747 66.9298 34.67 66.9473 34.67C67.1001 34.5008 67.253 34.187 67.4058 33.7285C67.5586 33.27 67.7068 32.7742 67.8515 32.2398C67.995 31.7055 68.1187 31.1968 68.2202 30.7127C68.3217 30.2285 68.3986 29.868 68.4488 29.6312C68.4826 29.462 68.4651 29.3932 68.3975 29.4282C68.3123 29.462 68.261 29.5133 68.2446 29.581C67.8888 30.225 67.5575 30.9892 67.2518 31.8712C66.9461 32.7532 66.777 33.5675 66.7431 34.3142C66.7431 34.4495 66.7513 34.5428 66.7688 34.5942L66.7677 34.593Z" fill="#E3FE73"/>
</svg>
