<svg width="120" height="48" viewBox="0 0 120 48" fill="none" xmlns="http://www.w3.org/2000/svg">
<path d="M39.6412 8.38607L14.5803 22.9109H39.6412V30.5133H0.964355V22.3155L25.9829 7.833H1.38976V0.18829H39.6412V8.38455V8.38607Z" fill="white"/>
<path d="M79.5077 15.3504C81.6348 17.1773 82.5719 19.5981 82.5719 21.8905C82.5719 28.219 77.9333 30.5114 72.5726 30.5114H43.895V0.186401H72.5726C77.9333 0.186401 82.5719 2.48027 82.5719 8.80729C82.5719 11.1435 81.6363 13.5643 79.5077 15.3474V15.3504ZM71.7218 12.5896C73.4658 12.5896 74.5301 11.7827 74.5301 10.1265C74.5301 8.63956 73.4234 7.70569 71.8914 7.70569H51.9353V12.5896H71.7203H71.7218ZM51.9368 18.1535V22.9951H71.8929C73.4249 22.9951 74.5316 22.1036 74.5316 20.5743C74.5316 18.9181 73.4673 18.1535 71.7233 18.1535H51.9383H51.9368Z" fill="white"/>
<path d="M119.037 22.9951V30.5129H85.9766V0.187912H94.0607V22.9951H119.037Z" fill="white"/>
<path d="M29.9524 26.8802C28.6974 27.0116 27.5423 27.1884 26.4856 27.4075C26.3312 27.4514 26.1828 27.4907 26.039 27.5224C25.8952 27.5556 25.7362 27.5934 25.5606 27.6372C25.494 27.6599 25.3956 27.6705 25.2639 27.6705C25.0868 27.6705 24.9551 27.6493 24.8672 27.604C24.7567 27.5602 24.6856 27.4831 24.6523 27.3728C24.619 27.2625 24.6356 27.1537 24.7022 27.0434C24.9217 26.714 25.2745 26.4344 25.7589 26.2032C26.2434 25.972 26.7763 25.7861 27.3606 25.6426C27.9435 25.5005 28.5157 25.3902 29.0774 25.3131C29.639 25.2361 30.1174 25.1877 30.514 25.1651C30.8002 25.1651 31.0303 25.1046 31.2074 24.9837C31.383 24.8628 31.5586 24.6815 31.7358 24.4397C32.7258 23.0117 33.7114 21.5883 34.6909 20.1708C35.6704 18.7534 36.6559 17.3315 37.646 15.902C37.8216 15.6375 37.9972 15.3806 38.1743 15.1267C38.3499 14.8744 38.5256 14.6266 38.7027 14.3848C39.2083 13.7259 39.8366 13.2968 40.5844 13.0988C40.7162 13.055 40.8918 13.0324 41.1128 13.0324C41.5533 13.0324 41.894 13.1699 42.1362 13.4449C42.3784 13.7199 42.4768 14.0871 42.4329 14.5495C42.389 14.7913 42.3451 15.0436 42.3012 15.3081C42.2573 15.571 42.1907 15.8249 42.1029 16.0667C41.794 17.0549 41.4867 18.0281 41.1779 18.9831C40.8691 19.9396 40.5617 20.9007 40.2529 21.8678C40.1212 22.3076 39.994 22.7307 39.8729 23.1372C39.7518 23.5436 39.6246 23.9668 39.4929 24.4065C39.4263 24.6256 39.5035 24.7691 39.7246 24.8356C39.879 24.8583 40.0273 24.8795 40.1696 24.9006C40.3119 24.9233 40.4618 24.9565 40.6147 25.0003C40.9236 25.0442 41.2142 25.1877 41.4897 25.4295C41.7653 25.6713 41.9469 25.9463 42.0347 26.2531C42.0787 26.4948 42.0348 26.6928 41.903 26.8469C41.7713 27.0011 41.5942 27.0781 41.3747 27.0781H41.243C41.0008 27.0116 40.7585 26.9134 40.5163 26.7819C40.318 26.6943 40.1091 26.6172 39.8881 26.5507C39.667 26.4843 39.4369 26.4525 39.1947 26.4525C38.9525 26.4964 38.7981 26.6172 38.733 26.8152C38.6013 27.2987 38.4574 27.7717 38.303 28.2326C38.1486 28.6935 38.0169 29.1665 37.9064 29.65C37.7081 30.3316 37.5264 31.0131 37.3614 31.6931C37.1964 32.3746 37.0253 33.0667 36.8497 33.7693C36.7392 34.1652 36.6574 34.5611 36.6014 34.9555C36.5454 35.3515 36.5408 35.7353 36.5848 36.1085C36.6059 36.3503 36.6786 36.4984 36.7997 36.5543C36.9208 36.6087 37.0919 36.6374 37.3114 36.6374C37.752 36.5709 38.3136 36.2581 38.9964 35.6975C39.6791 35.1369 40.3664 34.5052 41.0598 33.8026C41.7532 33.0999 42.3966 32.4078 42.9915 31.7263C43.5865 31.0448 44.0149 30.5401 44.2798 30.2107C44.4116 30.0127 44.5554 29.8374 44.7098 29.6833C44.7976 29.5518 44.896 29.4853 45.0065 29.4853C45.0731 29.4853 45.117 29.4959 45.1382 29.5186C45.226 29.5624 45.276 29.6228 45.2866 29.6999C45.2972 29.777 45.2911 29.8601 45.2699 29.9477C45.1821 30.3436 44.9505 30.8378 44.5766 31.4316C44.2026 32.0255 43.7454 32.6571 43.2065 33.3266C42.666 33.9975 42.0665 34.6669 41.4065 35.3379C40.7464 36.0073 40.0803 36.6117 39.4081 37.1512C38.736 37.6892 38.0926 38.1228 37.4764 38.4538C36.8603 38.7832 36.3092 38.9479 35.8248 38.9479C35.3403 38.9479 34.8831 38.8043 34.5198 38.5188C34.1565 38.2332 33.8976 37.8267 33.7432 37.2993C33.6993 37.0575 33.666 36.8097 33.6448 36.5573C33.6221 36.305 33.6342 36.0571 33.6781 35.8154C33.7886 35.3756 33.8809 34.9374 33.9581 34.4977C34.0354 34.0579 34.1277 33.6197 34.2382 33.18C34.5016 32.1917 34.7772 31.214 35.0633 30.2469C35.3494 29.2798 35.6249 28.3021 35.8884 27.3139C35.9989 26.9406 36.0367 26.6988 36.0034 26.5885C35.9701 26.4782 35.799 26.4238 35.4917 26.4238H35.2283C34.7878 26.4465 34.3578 26.4676 33.94 26.4888C33.5221 26.5115 33.0922 26.5326 32.6517 26.5553C32.2777 26.5779 31.9583 26.7759 31.6934 27.1491C30.6367 28.6875 29.5845 30.2031 28.5399 31.6976C27.4938 33.1921 26.4205 34.6866 25.3199 36.1811C25.0111 36.6208 24.5766 37.0273 24.0149 37.4005C23.4533 37.7738 22.8871 37.9611 22.3148 37.9611C22.1604 37.9611 22.0393 37.9506 21.9515 37.9279C21.6427 37.8841 21.4671 37.7632 21.4231 37.5652C21.3792 37.3673 21.4792 37.1482 21.7199 36.9064L21.8849 36.7417C22.4571 36.3458 22.9749 35.8894 23.4366 35.3741C23.8984 34.8588 24.3495 34.3254 24.79 33.7754C25.715 32.6541 26.6067 31.5238 27.4651 30.3799C28.3235 29.2375 29.1485 28.0724 29.9418 26.8862L29.9524 26.8802ZM38.8026 17.1562C38.4287 17.5294 37.7792 18.359 36.8542 19.645C35.9292 20.9309 34.8619 22.4964 33.6508 24.3415C33.6069 24.4292 33.557 24.5123 33.5025 24.5893C33.448 24.6664 33.4525 24.7601 33.5191 24.8689C33.9597 24.8477 34.4047 24.8311 34.8559 24.819C35.307 24.8084 35.7642 24.7918 36.226 24.7691C36.5121 24.7691 36.6998 24.6377 36.7876 24.3732C36.8315 24.1753 36.886 23.9728 36.9526 23.7627C37.0192 23.5542 37.0737 23.3502 37.1176 23.1523L38.7027 17.9117C38.7466 17.8014 38.7859 17.6805 38.8177 17.5491C38.851 17.4176 38.845 17.2861 38.8011 17.1532L38.8026 17.1562Z" fill="#E3FE73"/>
<path d="M48.3128 31.891C48.3128 31.7369 48.2356 31.6598 48.0812 31.6598C48.0585 31.6825 48.0373 31.6931 48.0146 31.6931C47.3545 32.2431 46.6718 32.7372 45.9678 33.177C45.7907 33.3084 45.5606 33.446 45.2744 33.5895C44.9883 33.7331 44.7355 33.8041 44.5145 33.8041C44.3162 33.8041 44.0845 33.7376 43.8211 33.6061C43.1822 33.2556 42.8961 32.7161 42.9627 31.9908C43.0066 31.5299 43.1777 31.0629 43.4744 30.59C43.7712 30.117 44.1299 29.6727 44.5478 29.2556C44.9656 28.8386 45.4122 28.4532 45.8845 28.1027C46.3584 27.7521 46.7702 27.465 47.1229 27.2459C47.3651 27.1144 47.6285 26.9814 47.9162 26.85C48.2023 26.7185 48.4884 26.652 48.7745 26.652C48.9502 26.652 49.1212 26.6792 49.2862 26.7351C49.4513 26.7895 49.6223 26.862 49.7979 26.9497C49.9735 27.0812 50.1068 27.1915 50.1946 27.2791C50.3702 27.4332 50.5307 27.5813 50.673 27.7234C50.8153 27.8669 50.9652 28.015 51.1196 28.1692C51.3618 28.4109 51.4602 28.6965 51.4163 29.026C51.3936 29.2028 51.3724 29.3614 51.3497 29.5035C51.327 29.647 51.3164 29.7619 51.3164 29.8495C51.2937 29.9598 51.277 30.0263 51.2664 30.0475C51.2558 30.0701 51.2498 30.0913 51.2498 30.114C51.2498 30.2681 51.2104 30.4222 51.1347 30.5748C51.0575 30.729 51.0742 30.871 51.1847 31.004C51.3603 31.0267 51.5041 30.9874 51.6146 30.8892C51.7251 30.7909 51.8462 30.6972 51.9779 30.6096C52.2868 30.4555 52.5774 30.3134 52.853 30.1804C53.1285 30.049 53.4192 29.9281 53.728 29.8178C54.3441 29.5987 54.9058 29.4884 55.4114 29.4884C55.6098 29.4884 55.7627 29.4989 55.8732 29.5216C56.1154 29.5443 56.3137 29.6092 56.4681 29.7196C56.512 29.7422 56.5559 29.8299 56.5998 29.984C56.621 30.0278 56.6044 30.0883 56.5499 30.1653C56.4954 30.2424 56.4454 30.3028 56.4015 30.3467C56.3137 30.3905 56.2365 30.4237 56.1699 30.4449C56.1033 30.4676 56.0382 30.4887 55.9716 30.5114C55.8611 30.5552 55.7506 30.5824 55.6416 30.5945C55.531 30.6051 55.4205 30.6217 55.3115 30.6444C54.541 30.732 53.8143 30.9405 53.1315 31.27C52.4488 31.5994 51.7887 32.018 51.1498 32.5227C50.8637 32.6995 50.6654 32.9624 50.5549 33.3145C50.4444 33.6666 50.3566 33.996 50.2915 34.3028C50.0704 35.1384 49.8297 36.0058 49.5648 36.9064C49.3014 37.807 49.0031 38.691 48.6731 39.5599C48.3431 40.4273 47.9631 41.2735 47.5332 42.0986C47.1032 42.9221 46.6142 43.6747 46.0632 44.3562C45.7771 44.6644 45.4637 44.9667 45.1215 45.2628C44.7794 45.559 44.3782 45.7071 43.9165 45.7071C43.4986 45.7071 43.1353 45.5757 42.8265 45.3112C42.5176 45.0483 42.3647 44.6962 42.3647 44.2564C42.3647 43.5311 42.5464 42.7287 42.9097 41.8508C43.2731 40.9713 43.7182 40.0873 44.2465 39.1972C44.7749 38.3072 45.3305 37.461 45.9148 36.6586C46.4977 35.8562 47.0215 35.1701 47.4832 34.5989C47.7254 34.3133 47.9237 33.8796 48.0782 33.2964C48.2326 32.7146 48.3098 32.2476 48.3098 31.8956L48.3128 31.891ZM46.2978 39.3408L46.7929 37.8569V37.6589L46.6279 37.7904C46.1434 38.5822 45.6862 39.3937 45.2578 40.2293C44.8278 41.0635 44.4933 41.9429 44.251 42.8662V42.9644C44.2738 43.0083 44.2949 43.0355 44.3177 43.0476C44.3389 43.0581 44.3616 43.0748 44.3843 43.0974C44.4509 43.0974 44.4827 43.0868 44.4827 43.0642C44.6583 42.8874 44.8021 42.7076 44.9126 42.5202C45.0231 42.3328 45.1321 42.1409 45.2427 41.9429L46.2993 39.3393L46.2978 39.3408ZM46.1661 31.0675H46.3977C47.3 30.5628 48.1145 29.8812 48.8412 29.0229V28.9247C48.7973 28.8371 48.7428 28.8038 48.6761 28.8265C48.169 29.0033 47.7133 29.2496 47.3061 29.5684C46.8988 29.8873 46.5083 30.2666 46.1343 30.7063C46.0677 30.7728 46.0571 30.8378 46.101 30.9043C46.101 30.9269 46.1222 30.9813 46.1676 31.069L46.1661 31.0675Z" fill="#E3FE73"/>
<path d="M55.0815 36.7039C54.8393 36.243 54.6803 35.7595 54.6031 35.2532C54.5259 34.7485 54.5093 34.2423 54.5532 33.7376C54.641 32.9246 54.8181 32.0784 55.0815 31.1989C55.3449 30.3195 55.7143 29.5065 56.1882 28.76C56.662 28.0135 57.2388 27.3698 57.9216 26.8318C58.6043 26.2939 59.3961 25.9478 60.2999 25.7937C60.4104 25.7725 60.5633 25.7604 60.7616 25.7604C61.4656 25.7604 62.0378 26.0355 62.4784 26.584C62.9189 27.134 63.1051 27.7702 63.04 28.4956C63.04 28.6059 63.0173 28.7268 62.9734 28.8582C62.598 29.8027 62.0863 30.6005 61.4383 31.2473C60.7889 31.8956 59.9683 32.3852 58.9783 32.7146C58.6043 32.8687 58.185 32.9458 57.7233 32.9458C57.6127 32.9458 57.5022 32.9397 57.3932 32.9292C57.2827 32.9186 57.1722 32.902 57.0632 32.8793C56.9315 32.8581 56.8149 32.8899 56.7165 32.9775C56.6181 33.0652 56.5454 33.1649 56.5015 33.2737C56.5015 33.3402 56.4909 33.4006 56.4682 33.455C56.4455 33.5094 56.4349 33.5699 56.4349 33.6364C56.3683 34.472 56.4455 35.2729 56.6666 36.042C56.7983 36.5029 57.0511 36.7341 57.4265 36.7341C57.4931 36.7341 57.6127 36.7115 57.7899 36.6676C58.5165 36.4485 59.2916 36.1131 60.1182 35.6628C60.9433 35.2124 61.7411 34.7017 62.5117 34.1305C63.2823 33.5593 64.0135 32.9443 64.7083 32.2854C65.4017 31.6266 65.98 30.9783 66.4417 30.3406C66.5295 30.2092 66.6279 30.0822 66.7385 29.9613C66.849 29.8404 66.958 29.7135 67.0685 29.582C67.1124 29.5156 67.179 29.4838 67.2668 29.4838C67.3107 29.4838 67.3546 29.5065 67.3985 29.5503C67.4197 29.5941 67.4424 29.644 67.4651 29.6984C67.4863 29.7528 67.4984 29.8132 67.4984 29.8797C67.4984 29.99 67.4651 30.1004 67.4 30.2092C67.2683 30.5824 67.0473 30.9949 66.74 31.4452C66.4311 31.8956 66.0799 32.3353 65.6833 32.7629C65.2866 33.1921 64.89 33.5986 64.4949 33.9824C64.0982 34.3677 63.7576 34.6911 63.4715 34.954C63.1854 35.2185 62.8114 35.5479 62.3482 35.9423C61.8864 36.3382 61.3899 36.7175 60.8615 37.0802C60.3332 37.4428 59.8048 37.7556 59.2765 38.0201C58.7482 38.283 58.2743 38.416 57.8565 38.416C57.2842 38.416 56.7392 38.2558 56.2215 37.9385C55.7052 37.6196 55.3253 37.2071 55.0815 36.7024V36.7039ZM61.0583 28.4291C61.0356 28.3852 61.025 28.3308 61.025 28.2644C61.025 28.1979 61.0023 28.1329 60.9584 28.0664C60.9145 27.9788 60.8146 27.9349 60.6617 27.9349C60.5739 27.9349 60.4846 27.9576 60.3968 28.0014L60.2651 28.0679C58.9662 28.7494 57.9746 29.7815 57.2933 31.1657C57.2494 31.2322 57.26 31.3032 57.3266 31.3803C57.3932 31.4573 57.4689 31.4951 57.5582 31.4951H57.7899C58.5816 31.3198 59.2311 30.9949 59.7382 30.522C60.2439 30.049 60.6632 29.4627 60.9933 28.7585L61.0599 28.4291H61.0583Z" fill="#E3FE73"/>
<path d="M65.9132 33.7361C66.0237 32.5272 66.1766 31.3183 66.375 30.1109C66.5733 28.902 66.8594 27.7158 67.2333 26.5508C67.4317 26.0234 67.7072 25.6063 68.0584 25.298C68.234 25.1877 68.399 25.1333 68.5535 25.1333C68.6413 25.1333 68.7518 25.156 68.8835 25.1998C69.1696 25.354 69.3346 25.6169 69.3785 25.9916C69.3785 26.102 69.3679 26.2062 69.3452 26.3044C69.3225 26.4027 69.3013 26.5084 69.2786 26.6172C69.1681 26.9905 69.0697 27.3698 68.9819 27.7551C68.8941 28.1404 68.8048 28.5303 68.7185 28.9247C68.608 29.2768 68.5262 29.6123 68.4702 29.9296C68.4157 30.2484 68.3869 30.5839 68.3869 30.9345L68.4202 30.9677L68.4535 31.001H68.6519C68.7624 30.8468 68.8668 30.7048 68.9652 30.5718C69.0636 30.4388 69.1681 30.2968 69.2786 30.1427C69.9826 28.9564 70.7092 27.802 71.4586 26.6822C71.722 26.309 71.9976 25.969 72.2837 25.6607C72.3715 25.5504 72.5259 25.4084 72.7454 25.2316C73.0542 25.0124 73.3722 24.9021 73.7037 24.9021C74.1003 24.9021 74.441 25.0502 74.7271 25.3479C75.0132 25.6441 75.1782 25.9796 75.2221 26.3528C75.2887 26.7049 75.266 27.0887 75.1555 27.5058C74.8255 28.7147 74.5 29.9236 74.1821 31.1309C73.8627 32.3398 73.5932 33.5699 73.3737 34.8226C73.3298 34.9994 73.3071 35.1792 73.3071 35.3666V35.9106C73.3071 36.0647 73.3616 36.1856 73.4721 36.2732C73.5599 36.3171 73.6144 36.3397 73.6371 36.3397C73.7249 36.3397 73.8354 36.2959 73.9671 36.2083C74.385 35.8788 74.7271 35.5494 74.9905 35.22C75.1888 34.9782 75.4416 34.6382 75.7505 34.1985C76.0593 33.7588 76.3772 33.2979 76.7088 32.8143C77.0388 32.3308 77.3522 31.8578 77.6504 31.3969C77.9471 30.936 78.1727 30.5733 78.3271 30.3089C78.6132 29.8042 78.8328 29.5503 78.9872 29.5503C79.1416 29.5503 79.2021 29.7649 79.1688 30.1925C79.1355 30.6217 78.9978 31.0327 78.7556 31.4286C78.5572 31.758 78.2984 32.1917 77.9789 32.7312C77.6595 33.2692 77.3189 33.8192 76.9555 34.3798C76.5922 34.9404 76.2289 35.4739 75.8655 35.9786C75.5022 36.4833 75.1888 36.8792 74.9239 37.1648C74.6817 37.4292 74.4061 37.6756 74.0988 37.9068C73.79 38.138 73.4494 38.2528 73.0754 38.2528C72.6349 38.2528 72.2277 38.0881 71.8537 37.7587C71.501 37.4292 71.2421 37.0605 71.0771 36.654C70.9121 36.2476 70.8727 35.8018 70.962 35.3182C71.0287 34.945 71.0998 34.5596 71.177 34.1652C71.2542 33.7693 71.3466 33.3855 71.4571 33.0123C71.5676 32.5076 71.6933 32.018 71.8371 31.545C71.9794 31.072 72.1066 30.5839 72.2171 30.0777C72.4154 29.375 72.5804 28.6829 72.7121 28.0014C72.7333 27.9138 72.7454 27.8261 72.7454 27.7385V27.474C72.7454 27.4302 72.7288 27.403 72.6954 27.3909C72.6621 27.3804 72.6349 27.3637 72.6122 27.3411C72.5456 27.2746 72.5138 27.2746 72.5138 27.3411C72.426 27.4287 72.3427 27.5058 72.2655 27.5723C72.1883 27.6388 72.1171 27.7158 72.0505 27.8035C71.7205 28.2644 71.3784 28.7812 71.0271 29.3524C70.6744 29.9236 70.3383 30.5053 70.0204 31.0992C69.701 31.6931 69.4043 32.2915 69.1287 32.8959C68.8532 33.5004 68.6276 34.0776 68.452 34.6261C68.3854 34.8452 68.3082 35.0115 68.2204 35.1203C68.0221 35.4935 67.7253 35.6809 67.3287 35.6809C66.9548 35.6809 66.6399 35.5116 66.3871 35.1701C66.1343 34.8301 65.9738 34.4947 65.9087 34.1652V33.7361H65.9132Z" fill="#E3FE73"/>
<path d="M77.0084 32.9458C77.0084 32.4849 77.1568 31.9076 77.4535 31.2156C77.7502 30.5235 78.1363 29.848 78.6086 29.1876C79.0825 28.5288 79.5987 27.9636 80.1604 27.4907C80.722 27.0177 81.267 26.782 81.7954 26.782C82.2359 26.782 82.6265 26.9195 82.9671 27.1945C83.3077 27.4695 83.5 27.8367 83.5454 28.2991C83.5893 28.9806 83.3365 29.4974 82.7854 29.848C82.7627 29.8707 82.7461 29.8812 82.7355 29.8812C82.7249 29.8812 82.7082 29.8918 82.6855 29.9145C82.6416 29.9372 82.575 29.9477 82.4872 29.9477C82.2238 29.9477 82.0573 29.8268 81.9922 29.5851C81.9695 29.4748 81.9528 29.3539 81.9422 29.2224C81.9316 29.0909 81.915 28.97 81.8923 28.8597C81.8923 28.7283 81.8044 28.6618 81.6288 28.6618C81.6061 28.6844 81.5849 28.695 81.5622 28.695C81.3412 28.8265 81.1989 28.9368 81.1323 29.0244C80.6251 29.5956 80.2028 30.2061 79.8606 30.8544C79.5185 31.5027 79.2611 32.2114 79.084 32.9805C79.0401 33.2223 79.0507 33.4309 79.1173 33.6076C79.249 33.8056 79.4261 33.9038 79.6456 33.9038C80.0635 33.7724 80.504 33.5412 80.9658 33.2117C81.4275 32.8823 81.8847 32.5257 82.3358 32.1404C82.787 31.7565 83.2154 31.3606 83.6241 30.9541C84.0314 30.5476 84.3781 30.191 84.6642 29.8828C84.7308 29.8163 84.802 29.7452 84.8792 29.6682C84.9564 29.5911 85.0487 29.5428 85.1592 29.5201C85.2697 29.5201 85.3242 29.5533 85.3242 29.6198C85.3909 30.0157 85.2909 30.3784 85.0275 30.7078C84.8065 31.0161 84.4553 31.4332 83.9708 31.9605C83.4864 32.4879 82.958 32.9987 82.3858 33.4928C81.8135 33.9869 81.2352 34.4161 80.6524 34.7788C80.0695 35.1414 79.579 35.3228 79.1824 35.3228C78.5435 35.3228 78.0273 35.081 77.6307 34.5974C77.234 34.1139 77.0251 33.5653 77.0039 32.9488L77.0084 32.9458Z" fill="#E3FE73"/>
<path d="M83.6455 33.242C83.8438 31.9243 84.0967 30.732 84.4055 29.6652C84.7143 28.5998 85.0656 27.4408 85.4622 26.1881C85.5061 26.0778 85.556 25.9629 85.6105 25.842C85.665 25.7212 85.7256 25.6063 85.7922 25.496C85.9239 25.2769 86.0571 25.1122 86.1889 25.0019C86.3872 24.8704 86.5961 24.8039 86.8156 24.8039C86.9912 24.8039 87.1895 24.8598 87.4106 24.9686C87.8723 25.2331 88.0494 25.6063 87.9389 26.0899C87.895 26.2213 87.8511 26.3543 87.8072 26.4858C87.7633 26.6172 87.7194 26.7502 87.6755 26.8817C87.5211 27.2988 87.35 27.7989 87.1638 28.3822C86.9761 28.964 86.7944 29.5579 86.6188 30.1623C86.4417 30.7668 86.2933 31.3652 86.1737 31.959C86.0526 32.5529 85.9921 33.0803 85.9921 33.5412C85.9921 33.7829 86.0254 33.9476 86.0905 34.0353C86.1571 34.1229 86.2994 34.1668 86.5204 34.1668C86.917 33.9688 87.3515 33.585 87.8254 33.0138C88.2992 32.4426 88.761 31.8004 89.2121 31.0856C89.6632 30.3724 90.0765 29.6516 90.4505 28.9262C90.8244 28.2009 91.0999 27.5964 91.2755 27.1129C91.3194 26.9376 91.4239 26.8001 91.5889 26.7004C91.7539 26.6021 91.925 26.5523 92.1006 26.5523C92.4094 26.5523 92.6895 26.6626 92.9423 26.8817C93.1951 27.1008 93.3329 27.3652 93.3556 27.6735C93.3556 27.8503 93.3495 28.0256 93.3389 28.2009C93.3284 28.3777 93.3117 28.553 93.289 28.7283L92.859 31.4966C92.8151 31.5843 92.8363 31.6508 92.9257 31.6946C92.9469 31.7172 93.0029 31.7278 93.0907 31.7278C93.2012 31.684 93.3662 31.5964 93.5857 31.4634C93.9824 31.2654 94.379 31.0629 94.7741 30.8544C95.1708 30.6459 95.578 30.454 95.9958 30.2772C96.3032 30.1457 96.6059 30.0293 96.9042 29.9311C97.2009 29.8329 97.5037 29.7286 97.8125 29.6183C97.9003 29.5745 98.0214 29.5518 98.1758 29.5518C98.418 29.5518 98.5498 29.6289 98.5725 29.783C98.5937 29.9598 98.5558 30.0958 98.4574 30.1956C98.359 30.2938 98.253 30.3769 98.144 30.4434C97.9896 30.531 97.8413 30.6081 97.699 30.6746C97.5551 30.7411 97.4068 30.806 97.2524 30.8725C96.6574 31.137 96.0746 31.4226 95.5023 31.7293C94.9301 32.0376 94.3896 32.3776 93.884 32.7508C93.7068 32.8612 93.5312 32.9866 93.3556 33.1301C93.1785 33.2737 93.0029 33.3991 92.8273 33.5094C92.5411 33.73 92.3655 34.0262 92.2989 34.3995L91.869 36.509C91.5828 37.7829 91.2861 39.0416 90.9773 40.2837C90.6685 41.5244 90.2945 42.7604 89.854 43.992C89.5451 44.9364 89.1712 45.7932 88.7307 46.5624C88.5536 46.8918 88.2856 47.1835 87.9223 47.4358C87.5589 47.6882 87.1789 47.8151 86.7823 47.8151C86.4069 47.8151 86.0768 47.7003 85.7922 47.4691C85.5061 47.2379 85.3517 46.9356 85.3305 46.5624C85.2639 46.1665 85.2639 45.7706 85.3305 45.3762C85.6393 43.5734 86.095 41.7722 86.7006 39.9709C87.3061 38.1682 88.2038 36.5422 89.3922 35.0931C89.7435 34.676 89.9539 34.1924 90.019 33.6424C90.0856 33.2465 90.1507 32.8627 90.2173 32.4894C90.2839 32.1162 90.3051 31.7308 90.2839 31.3364L87.1471 35.5222C86.861 35.8955 86.4977 36.1705 86.0571 36.3458C85.88 36.4334 85.6817 36.4772 85.4622 36.4772C85.1761 36.4772 84.9232 36.4108 84.7022 36.2793C84.4812 36.1478 84.3177 35.9937 84.2072 35.8184C84.1633 35.7308 84.1133 35.6431 84.0588 35.5555C84.0043 35.4678 83.9544 35.3696 83.9105 35.2593C83.6682 34.6216 83.5804 33.9522 83.647 33.248L83.6455 33.242ZM86.9488 44.8443C86.9488 44.8881 86.9655 44.9153 86.9988 44.9274C87.0321 44.938 87.0593 44.9546 87.0821 44.9772C87.1032 44.9772 87.1199 44.9712 87.132 44.9606C87.1426 44.95 87.1593 44.944 87.182 44.944C87.3803 44.7249 87.5786 44.3184 87.7769 43.7245C87.9752 43.1307 88.1675 42.4884 88.3552 41.7964C88.5414 41.1043 88.7019 40.4454 88.8336 39.8183C88.9653 39.1912 89.0652 38.7243 89.1303 38.4175C89.1742 38.1984 89.1515 38.1092 89.0637 38.1546C88.9532 38.1984 88.8866 38.2649 88.8654 38.3525C88.4037 39.1867 87.9737 40.1764 87.5771 41.3188C87.1804 42.4612 86.9609 43.516 86.917 44.4831C86.917 44.6584 86.9276 44.7793 86.9503 44.8458L86.9488 44.8443Z" fill="#E3FE73"/>
</svg>
